<svg width="458" height="130" viewBox="0 0 458 130" fill="none" xmlns="http://www.w3.org/2000/svg">
<path d="M2.074 102L21.082 47.952H31.258L50.554 102H44.026L38.17 85.104H14.458L8.602 102H2.074ZM26.362 50.64L16.186 79.92H36.442L26.362 50.64ZM56.7955 102V62.928H62.3635L63.0355 73.2C63.4195 71.472 64.1875 69.808 65.3395 68.208C66.4915 66.608 68.0595 65.328 70.0435 64.368C72.0915 63.344 74.6195 62.864 77.6275 62.928H79.4515V69.744H77.5315C73.4355 69.744 70.3315 70.352 68.2195 71.568C66.1715 72.72 64.7635 74.352 63.9955 76.464C63.2915 78.576 62.9395 81.008 62.9395 83.76V102H56.7955ZM102.1 102.96C98.452 102.96 95.188 102.192 92.308 100.656C89.428 99.12 87.156 96.88 85.492 93.936C83.828 90.992 82.996 87.44 82.996 83.28C83.124 79.184 83.988 75.6 85.588 72.528C87.252 69.456 89.524 67.088 92.404 65.424C95.284 63.696 98.58 62.832 102.292 62.832C105.748 62.832 108.756 63.472 111.316 64.752C113.876 66.032 115.924 67.76 117.46 69.936C118.996 72.112 119.956 74.512 120.34 77.136H114.676C114.036 74.32 112.628 72.144 110.452 70.608C108.34 69.072 105.684 68.304 102.484 68.304C98.388 68.304 95.124 69.68 92.692 72.432C90.324 75.12 89.108 78.64 89.044 82.992C89.044 87.408 90.196 90.928 92.5 93.552C94.868 96.112 98.164 97.392 102.388 97.392C105.46 97.392 108.116 96.624 110.356 95.088C112.596 93.552 114.036 91.344 114.676 88.464H120.34C119.956 91.152 118.964 93.584 117.364 95.76C115.828 97.936 113.748 99.696 111.124 101.04C108.564 102.32 105.556 102.96 102.1 102.96ZM175.392 102.96C170.4 102.96 165.92 101.936 161.952 99.888C157.984 97.776 154.816 94.64 152.448 90.48C150.144 86.32 149.024 81.2 149.088 75.12C149.088 68.976 150.208 63.824 152.448 59.664C154.752 55.44 157.92 52.272 161.952 50.16C165.984 48.048 170.592 46.992 175.776 46.992C182.432 46.992 187.872 48.784 192.096 52.368C196.32 55.888 199.008 60.752 200.16 66.96H193.728C192.896 62.096 190.784 58.512 187.392 56.208C184 53.904 180.128 52.752 175.776 52.752C169.376 52.752 164.352 54.672 160.704 58.512C157.056 62.288 155.232 67.696 155.232 74.736C155.232 82.096 156.992 87.696 160.512 91.536C164.096 95.312 169.088 97.2 175.488 97.2C180.288 97.2 184.384 96.048 187.776 93.744C191.168 91.376 193.248 87.792 194.016 82.992H200.544C199.392 89.136 196.672 94 192.384 97.584C188.16 101.168 182.496 102.96 175.392 102.96ZM221.251 102.864C217.667 102.864 214.723 102 212.419 100.272C210.115 98.48 208.387 96.08 207.235 93.072C206.147 90.064 205.603 86.64 205.603 82.8C205.603 76.912 206.883 72.08 209.443 68.304C212.067 64.464 216.003 62.544 221.251 62.544C223.939 62.544 226.179 63.024 227.971 63.984C229.827 64.88 231.299 66 232.387 67.344C233.539 68.688 234.371 69.968 234.883 71.184H234.979V62.928H241.315V102H236.035L235.075 94.416H234.883C234.307 95.696 233.475 97.008 232.387 98.352C231.299 99.632 229.827 100.72 227.971 101.616C226.179 102.448 223.939 102.864 221.251 102.864ZM223.651 97.392C227.619 97.392 230.467 96.08 232.195 93.456C233.987 90.832 234.883 87.312 234.883 82.896C234.883 78.16 233.955 74.544 232.099 72.048C230.307 69.552 227.491 68.304 223.651 68.304C219.427 68.304 216.387 69.712 214.531 72.528C212.739 75.28 211.843 78.704 211.843 82.8C211.843 87.088 212.771 90.608 214.627 93.36C216.483 96.048 219.491 97.392 223.651 97.392ZM249.452 102V62.928H255.02L255.692 73.2C256.076 71.472 256.844 69.808 257.996 68.208C259.148 66.608 260.716 65.328 262.7 64.368C264.748 63.344 267.276 62.864 270.284 62.928H272.108V69.744H270.188C266.092 69.744 262.988 70.352 260.876 71.568C258.828 72.72 257.42 74.352 256.652 76.464C255.948 78.576 255.596 81.008 255.596 83.76V102H249.452ZM294.468 102.96C288.196 102.96 283.492 101.104 280.356 97.392C277.284 93.616 275.748 88.816 275.748 82.992C275.684 77.104 277.22 72.304 280.356 68.592C283.556 64.816 288.26 62.896 294.468 62.832C300.612 62.832 305.252 64.688 308.388 68.4C311.588 72.048 313.188 76.912 313.188 82.992C313.188 86.768 312.516 90.16 311.172 93.168C309.828 96.176 307.78 98.576 305.028 100.368C302.276 102.096 298.756 102.96 294.468 102.96ZM294.468 97.584C297.796 97.584 300.356 96.848 302.148 95.376C304.004 93.904 305.284 92.048 305.988 89.808C306.756 87.504 307.14 85.168 307.14 82.8C307.14 80.432 306.756 78.096 305.988 75.792C305.284 73.488 304.004 71.6 302.148 70.128C300.356 68.656 297.796 67.92 294.468 67.92C291.14 67.92 288.548 68.656 286.692 70.128C284.9 71.6 283.62 73.488 282.852 75.792C282.148 78.096 281.796 80.432 281.796 82.8C281.796 85.168 282.148 87.504 282.852 89.808C283.62 92.048 284.9 93.904 286.692 95.376C288.548 96.848 291.14 97.584 294.468 97.584ZM335.175 102.96C331.975 102.96 329.383 102.384 327.399 101.232C325.479 100.08 324.007 98.544 322.983 96.624C321.959 94.64 321.255 92.496 320.871 90.192C320.551 87.824 320.391 85.456 320.391 83.088V62.928H326.535V83.184C326.535 85.744 326.791 88.112 327.303 90.288C327.815 92.464 328.839 94.192 330.375 95.472C331.975 96.752 334.279 97.392 337.287 97.392C340.167 97.392 342.407 96.752 344.007 95.472C345.671 94.128 346.887 92.4 347.655 90.288C348.423 88.176 348.871 85.968 348.999 83.664V62.928H355.335V102H350.055L348.999 93.264H348.807C348.487 94.352 347.815 95.664 346.791 97.2C345.767 98.736 344.295 100.08 342.375 101.232C340.519 102.384 338.119 102.96 335.175 102.96ZM378.981 102.96C375.269 102.96 372.197 102.192 369.765 100.656C367.397 99.056 365.605 97.2 364.389 95.088C363.237 92.976 362.661 91.088 362.661 89.424H368.613C368.613 89.488 368.645 89.968 368.709 90.864C368.837 91.76 369.189 92.784 369.765 93.936C370.341 95.088 371.333 96.112 372.741 97.008C374.149 97.84 376.197 98.256 378.885 98.256C381.765 98.256 384.229 97.744 386.277 96.72C388.389 95.696 389.413 94.096 389.349 91.92C389.349 90.064 388.709 88.656 387.429 87.696C386.213 86.672 384.613 85.904 382.629 85.392C380.645 84.816 378.565 84.272 376.389 83.76C374.213 83.248 372.133 82.608 370.149 81.84C368.229 81.008 366.661 79.856 365.445 78.384C364.229 76.912 363.621 74.864 363.621 72.24C363.621 69.04 365.061 66.512 367.941 64.656C370.821 62.736 374.501 61.776 378.981 61.776C381.477 61.776 384.005 62.192 386.565 63.024C389.125 63.792 391.237 65.168 392.901 67.152C394.565 69.072 395.333 71.792 395.205 75.312H389.445C389.573 72.88 389.029 71.056 387.813 69.84C386.597 68.624 385.125 67.824 383.397 67.44C381.733 66.992 380.197 66.768 378.789 66.768C376.037 66.768 373.765 67.28 371.973 68.304C370.245 69.328 369.381 70.768 369.381 72.624C369.381 74.416 369.989 75.792 371.205 76.752C372.485 77.648 374.085 78.384 376.005 78.96C377.989 79.472 380.069 79.984 382.245 80.496C384.485 80.944 386.597 81.584 388.581 82.416C390.565 83.248 392.165 84.432 393.381 85.968C394.661 87.504 395.301 89.616 395.301 92.304C395.301 96.016 393.733 98.736 390.597 100.464C387.461 102.128 383.589 102.96 378.981 102.96ZM419.814 102.96C415.526 102.96 411.974 102 409.158 100.08C406.406 98.096 404.358 95.568 403.014 92.496C401.734 89.36 401.094 86.128 401.094 82.8C401.094 79.152 401.798 75.824 403.206 72.816C404.678 69.744 406.79 67.312 409.542 65.52C412.358 63.728 415.718 62.832 419.622 62.832C424.614 62.832 428.774 64.464 432.102 67.728C435.43 70.928 437.222 75.248 437.478 80.688C437.542 80.944 437.574 81.328 437.574 81.84C437.574 82.288 437.574 82.704 437.574 83.088H407.046C407.046 87.632 408.134 91.216 410.31 93.84C412.55 96.4 415.686 97.68 419.718 97.68C422.726 97.68 425.286 96.912 427.398 95.376C429.574 93.84 430.918 91.76 431.43 89.136H437.478C436.838 93.104 434.95 96.4 431.814 99.024C428.678 101.648 424.678 102.96 419.814 102.96ZM407.238 79.728H431.238C431.238 78.384 430.854 76.784 430.086 74.928C429.382 73.072 428.166 71.472 426.438 70.128C424.774 68.72 422.47 68.016 419.526 68.016C416.838 68.016 414.63 68.592 412.902 69.744C411.174 70.896 409.862 72.368 408.966 74.16C408.07 75.952 407.494 77.808 407.238 79.728ZM446.711 102V47.952H452.759V102H446.711Z" fill="#95D0FF"/>
<circle cx="208" cy="119" r="4" fill="#95D0FF" fill-opacity="0.3"/>
<circle cx="227" cy="119" r="6" fill="#95D0FF"/>
<circle cx="245" cy="119" r="4" fill="#95D0FF" fill-opacity="0.3"/>
</svg>
